# xmcd
#
# Track frame offsets:
#	150
#	21573
#	41008
#	63557
#	95573
#	121171
#	139073
#	176922
#
# Disc length: 2696 seconds
#
# Revision: 1
# Processed by: cddbd v1.5.1PL2 Copyright (c) Steve Scherf et al.
# Submitted via: EasyCDDAExtractor 9.0.0.1
#
DISCID=740a8608
DTITLE=Alice Cooper - Dallas 06-05-72
DYEAR=1972
DGENRE=Hard Rock
TTITLE0=Intro - Be My Lover
TTITLE1=Yeah Yeah Yeah
TTITLE2=I'm Eighteen
TTITLE3=Is It My Body - My Very Own
TTITLE4=Dead Babies
TTITLE5=Killer
TTITLE6=Long Way To Go - School's Out
TTITLE7=Under My Wheels
EXTD=
EXTT0=
EXTT1=
EXTT2=
EXTT3=
EXTT4=
EXTT5=
EXTT6=
EXTT7=
PLAYORDER=
